<?xml version="1.0" encoding="UTF-8"?>
<svg id="SVGDoc" width="25" height="5" xmlns="http://www.w3.org/2000/svg" version="1.1" xmlns:xlink="http://www.w3.org/1999/xlink" xmlns:avocode="https://avocode.com/" viewBox="0 0 25 5"><defs></defs><desc>Generated with Avocode.</desc><g><g><title>Ellipse 83</title><path d="M10,2.5c0,-1.38071 1.11929,-2.5 2.5,-2.5c1.38071,0 2.5,1.11929 2.5,2.5c0,1.38071 -1.11929,2.5 -2.5,2.5c-1.38071,0 -2.5,-1.11929 -2.5,-2.5z" fill="#6a6c77" fill-opacity="1"></path></g><g><title>Ellipse 84</title><path d="M20,2.5c0,-1.38071 1.11929,-2.5 2.5,-2.5c1.38071,0 2.5,1.11929 2.5,2.5c0,1.38071 -1.11929,2.5 -2.5,2.5c-1.38071,0 -2.5,-1.11929 -2.5,-2.5z" fill="#6a6c77" fill-opacity="1"></path></g><g><title>Ellipse 85</title><path d="M0,2.5c0,-1.38071 1.11929,-2.5 2.5,-2.5c1.38071,0 2.5,1.11929 2.5,2.5c0,1.38071 -1.11929,2.5 -2.5,2.5c-1.38071,0 -2.5,-1.11929 -2.5,-2.5z" fill="#6a6c77" fill-opacity="1"></path></g></g></svg>