<?xml version="1.0" encoding="UTF-8"?>
<svg id="SVGDoc" width="13" height="13" xmlns="http://www.w3.org/2000/svg" version="1.1" xmlns:xlink="http://www.w3.org/1999/xlink" xmlns:avocode="https://avocode.com/" viewBox="0 0 13 13"><defs></defs><desc>Generated with Avocode.</desc><g><g><title>Union 2</title><path d="M10.875,12.01953l-4.24023,-4.24219v0l-4.24414,4.24219c-0.38672,0.39258 -1.02148,0.39258 -1.41406,0c-0.38867,-0.38867 -0.38867,-1.02148 0,-1.41016l4.24414,-4.24414v0l-4.24414,-4.24609c-0.38867,-0.38672 -0.38867,-1.02148 0,-1.41406c0.39258,-0.38672 1.02734,-0.38672 1.41406,0l4.24414,4.24609v0l4.24609,-4.24609c0.38672,-0.38672 1.02148,-0.38672 1.41406,0c0.38867,0.39258 0.38867,1.02734 0,1.41406l-4.24609,4.24609v0l4.24023,4.24414c0.39453,0.38867 0.39453,1.02148 0,1.41016c-0.19336,0.19531 -0.44922,0.29492 -0.70508,0.29492c-0.25586,0 -0.51172,-0.09961 -0.70898,-0.29492z" fill="#6a6c77" fill-opacity="0.6"></path></g></g></svg>