<?xml version="1.0" encoding="UTF-8"?>
<svg id="SVGDoc" width="17" height="18" xmlns="http://www.w3.org/2000/svg" version="1.1" xmlns:xlink="http://www.w3.org/1999/xlink" xmlns:avocode="https://avocode.com/" viewBox="0 0 17 18"><defs></defs><desc>Generated with Avocode.</desc><g><g><title>box</title><g><title>Path 260</title><path d="M9.16117,1.15609v0l5.94478,2.97239c0.50505,0.25097 0.82454,0.76618 0.82484,1.33015v7.08172c-0.0003,0.56397 -0.31979,1.07918 -0.82484,1.33015l-5.94478,2.97239c-0.41864,0.20949 -0.91151,0.20949 -1.33015,0l-5.94478,-2.97239c-0.50457,-0.25424 -0.82134,-0.77259 -0.81741,-1.33758v-7.07429c0.0003,-0.56397 0.31979,-1.07918 0.82484,-1.33015l5.94478,-2.97239c0.41661,-0.20702 0.90611,-0.20702 1.32271,0z" fill-opacity="0" fill="#ffffff" stroke-dashoffset="0" stroke-linejoin="round" stroke-linecap="round" stroke-opacity="1" stroke="#000000" stroke-miterlimit="20" stroke-width="1.5"></path></g><g><title>Path 261</title><path d="M8.49981,16.99151v-8.73883M1.30663,4.65608v0l7.19319,3.59659v0l7.19319,-3.59659v0" fill-opacity="0" fill="#ffffff" stroke-dashoffset="0" stroke-linejoin="round" stroke-linecap="round" stroke-opacity="1" stroke="#000000" stroke-miterlimit="20" stroke-width="1.5"></path></g></g></g></svg>