<?xml version="1.0" encoding="UTF-8"?>
<svg id="SVGDoc" width="14" height="11" xmlns="http://www.w3.org/2000/svg" version="1.1" xmlns:xlink="http://www.w3.org/1999/xlink" xmlns:avocode="https://avocode.com/" viewBox="0 0 14 11"><defs><clipPath id="ClipPath1387"><path d="M7,4.67361l-4.2791,-2.674h8.5582zM7,6.32561l5.6,-3.5v5.474c0,0.3866 -0.3134,0.7 -0.7,0.7h-9.8c-0.3866,0 -0.7,-0.3134 -0.7,-0.7v-5.474zM0,8.99961c0,0.7732 0.6268,1.4 1.4,1.4h11.2c0.7732,0 1.4,-0.6268 1.4,-1.4v-7c0,-0.7732 -0.6268,-1.4 -1.4,-1.4h-11.2c-0.7732,0 -1.4,0.6268 -1.4,1.4z" fill="#ffffff"></path></clipPath></defs><desc>Generated with Avocode.</desc><g><g><title>mail</title><path d="M7,4.67361l-4.2791,-2.674h8.5582zM7,6.32561l5.6,-3.5v5.474c0,0.3866 -0.3134,0.7 -0.7,0.7h-9.8c-0.3866,0 -0.7,-0.3134 -0.7,-0.7v-5.474zM0,8.99961c0,0.7732 0.6268,1.4 1.4,1.4h11.2c0.7732,0 1.4,-0.6268 1.4,-1.4v-7c0,-0.7732 -0.6268,-1.4 -1.4,-1.4h-11.2c-0.7732,0 -1.4,0.6268 -1.4,1.4z" fill="#0c0e20" fill-opacity="1"></path><path d="M7,4.67361l-4.2791,-2.674h8.5582zM7,6.32561l5.6,-3.5v5.474c0,0.3866 -0.3134,0.7 -0.7,0.7h-9.8c-0.3866,0 -0.7,-0.3134 -0.7,-0.7v-5.474zM0,8.99961c0,0.7732 0.6268,1.4 1.4,1.4h11.2c0.7732,0 1.4,-0.6268 1.4,-1.4v-7c0,-0.7732 -0.6268,-1.4 -1.4,-1.4h-11.2c-0.7732,0 -1.4,0.6268 -1.4,1.4z" fill-opacity="0" fill="#ffffff" stroke-dashoffset="0" stroke-linejoin="miter" stroke-linecap="butt" stroke-opacity="1" stroke="#f9fbfb" stroke-miterlimit="20" stroke-width="0.20000000298023224" clip-path="url(&quot;#ClipPath1387&quot;)"></path></g></g></svg>