<?xml version="1.0" encoding="UTF-8"?>
<svg id="SVGDoc" width="14" height="15" xmlns="http://www.w3.org/2000/svg" version="1.1" xmlns:xlink="http://www.w3.org/1999/xlink" xmlns:avocode="https://avocode.com/" viewBox="0 0 14 15"><defs></defs><desc>Generated with Avocode.</desc><g><g><title>phone</title><path d="M12.61297,12.16196l-0.36025,0.36025c-1.47737,1.47737 -4.73839,1.20747 -8.11191,-2.16663c-3.37352,-3.37409 -3.644,-6.63738 -2.16662,-8.11475l0.35741,-0.35968c0.33504,-0.33383 0.87697,-0.33383 1.21201,0l1.25008,1.25008c0.32859,0.33023 0.33388,0.86224 0.01194,1.19894c-0.79132,0.79636 -0.91716,2.03796 -0.30173,2.9769c0.70775,1.05911 1.61786,1.96788 2.67802,2.67405c0.93604,0.61547 2.17491,0.49302 2.97236,-0.29377c0.33617,-0.32586 0.87135,-0.32258 1.20349,0.00739l1.25008,1.25008c0.16273,0.16038 0.25477,0.37903 0.25573,0.6075c0.00096,0.22847 -0.08924,0.44789 -0.25062,0.60963zM13.41643,10.14421l-1.25009,-1.25008c-0.77529,-0.76907 -2.02406,-0.77438 -2.80587,-0.01193c-0.4136,0.41596 -1.0643,0.47962 -1.55067,0.15172c-0.93063,-0.62108 -1.73012,-1.41903 -2.353,-2.34845c-0.32191,-0.49145 -0.25452,-1.14141 0.16138,-1.55636c0.75531,-0.78229 0.74748,-2.02463 -0.01762,-2.79735l-1.25008,-1.25008c-0.77921,-0.77654 -2.03973,-0.77654 -2.81894,0l-0.35968,0.36025c-1.87513,1.87513 -1.73478,5.81744 2.16662,9.71657c2.35243,2.353 4.72021,3.33829 6.64022,3.33829c1.14169,0.03802 2.25084,-0.38391 3.07862,-1.1711l0.36025,-0.36025c0.77805,-0.77966 0.77754,-2.04218 -0.00113,-2.82121z" fill="#0c0e20" fill-opacity="1"></path></g></g></svg>