<?xml version="1.0" encoding="UTF-8"?>
<svg id="SVGDoc" width="24" height="23" xmlns="http://www.w3.org/2000/svg" version="1.1" xmlns:xlink="http://www.w3.org/1999/xlink" xmlns:avocode="https://avocode.com/" viewBox="0 0 24 23"><defs></defs><desc>Generated with Avocode.</desc><g><g><title>warehouse</title><g><title>Path 8778</title><path d="M8.30228,16.42022v0v0.96698c0,0.53378 -0.43321,0.96698 -0.96699,0.96698c-0.53378,0 -0.96699,-0.43321 -0.96699,-0.96698v-0.96698v0h-2.2563c-0.35585,0 -0.64466,0.28881 -0.64466,0.64465v5.15726c0,0.35584 0.28881,0.64465 0.64466,0.64465h6.44657c0.35585,0 0.64466,-0.28881 0.64466,-0.64465v-5.15726c0,-0.35585 -0.28881,-0.64465 -0.64466,-0.64465z" fill="black" fill-opacity="1"></path></g><g><title>Path 8779</title><path d="M17.32749,16.42022v0v0.96698c0,0.53378 -0.43321,0.96698 -0.96699,0.96698c-0.53377,0 -0.96698,-0.43321 -0.96698,-0.96698v-0.96698v0h-2.2563c-0.35585,0 -0.64466,0.28881 -0.64466,0.64465v5.15726c0,0.35584 0.28881,0.64465 0.64466,0.64465h6.44657c0.35584,0 0.64466,-0.28881 0.64466,-0.64465v-5.15726c0,-0.35585 -0.28881,-0.64465 -0.64466,-0.64465z" fill="black" fill-opacity="1"></path></g><g><title>Path 8780</title><path d="M12.81488,8.68433v0v0.96699c0,0.53378 -0.43321,0.96699 -0.96699,0.96699c-0.53378,0 -0.96699,-0.43321 -0.96699,-0.96699v-0.96699v0h-2.25631c-0.35584,0 -0.64465,0.28881 -0.64465,0.64466v5.15726c0,0.35584 0.28881,0.64466 0.64465,0.64466h6.44658c0.35585,0 0.64466,-0.28881 0.64466,-0.64466v-5.15726c0,-0.35585 -0.28881,-0.64466 -0.64466,-0.64466z" fill="black" fill-opacity="1"></path></g></g><g><title>Path 8781</title><path d="M1,22.86523v0v-14.22064v0l10.89746,-7.51178v0l10.9585,7.51178v0v14.22064v0" fill-opacity="0" fill="black" stroke-dashoffset="0" stroke-linejoin="round" stroke-linecap="butt" stroke-opacity="1" stroke="black" stroke-miterlimit="20" stroke-width="2"></path></g></g></svg>
